<svg xmlns="http://www.w3.org/2000/svg" xmlns:xlink="http://www.w3.org/1999/xlink" preserveAspectRatio="xMidYMid" width="1400" height="972.031" viewBox="0 0 1400 972.031">
  <defs>
    <style>
      .cls-1 {
        fill: #000;
        opacity: 0.05;
        fill-rule: evenodd;
      }
    </style>
  </defs>
  <path d="M-0.000,1.646 C35.866,1.474 184.003,-3.189 203.073,4.072 C379.216,164.439 555.411,324.854 731.553,485.221 C487.727,343.990 243.827,202.717 -0.000,61.486 C-0.000,41.541 -0.000,21.591 -0.000,1.646 ZM400.030,1.646 C460.375,1.646 520.738,1.646 581.083,1.646 C617.780,118.350 654.487,235.089 691.183,351.793 C700.969,382.788 710.758,413.793 720.543,444.788 C724.001,454.514 736.139,474.011 731.553,483.604 C731.553,483.065 731.553,482.526 731.553,481.986 C621.057,321.889 510.527,161.743 400.030,1.646 ZM726.660,1.646 C783.743,1.646 840.844,1.646 897.927,1.646 C843.698,162.282 789.452,322.967 735.223,483.604 C732.736,493.056 743.083,511.821 747.457,523.228 C758.873,556.918 770.293,590.619 781.710,624.310 C820.853,740.205 860.007,856.135 899.150,972.031 C842.882,972.031 786.598,972.031 730.330,972.031 C731.553,810.855 732.777,649.631 734.000,488.456 C698.060,487.625 643.593,492.517 604.327,497.351 C560.699,500.585 517.058,503.820 473.430,507.055 C315.636,518.644 157.794,530.237 -0.000,541.827 C-0.000,505.441 -0.000,469.044 -0.000,432.659 C183.074,446.404 366.203,460.154 549.277,473.900 C610.845,477.943 672.432,481.987 734.000,486.030 C731.554,324.585 729.106,163.091 726.660,1.646 ZM1058.183,1.646 C1131.168,1.915 1204.175,2.185 1277.160,2.454 C1275.937,3.263 1274.713,4.072 1273.490,4.880 C1094.901,164.439 916.259,324.045 737.670,483.604 C844.497,322.967 951.356,162.282 1058.183,1.646 ZM1466.777,41.270 C1467.184,97.331 1467.592,153.409 1468.000,209.470 C1224.989,301.378 981.905,393.313 738.893,485.221 C981.497,337.252 1224.173,189.239 1466.777,41.270 ZM-0.000,203.001 C243.419,297.065 486.911,391.157 730.330,485.221 C730.330,485.491 730.330,485.760 730.330,486.030 C486.911,435.359 243.419,384.673 -0.000,334.003 C-0.000,290.340 -0.000,246.664 -0.000,203.001 ZM1468.000,439.936 C1224.989,455.299 981.905,470.667 738.893,486.030 C981.905,432.664 1224.989,379.282 1468.000,325.916 C1468.000,363.919 1468.000,401.933 1468.000,439.936 ZM736.447,483.604 C736.854,484.143 737.262,484.682 737.670,485.221 C737.262,484.682 736.854,484.143 736.447,483.604 ZM1468.000,534.549 C1468.000,572.282 1468.000,610.027 1468.000,647.761 C1467.592,647.761 1467.184,647.761 1466.777,647.761 C1224.173,594.395 981.497,541.013 738.893,487.647 C981.905,503.279 1224.989,518.917 1468.000,534.549 ZM726.660,488.456 C727.883,488.456 729.107,488.456 730.330,488.456 C730.330,488.725 730.330,488.995 730.330,489.264 C486.911,584.406 243.419,679.577 -0.000,774.719 C-0.000,731.056 -0.000,687.380 -0.000,643.717 C242.196,591.969 484.464,540.204 726.660,488.456 ZM-0.000,972.031 C-0.000,953.703 -0.000,935.370 -0.000,917.042 C243.827,774.464 487.727,631.843 731.553,489.264 C556.634,650.170 381.663,811.125 206.743,972.031 C137.836,972.031 68.908,972.031 -0.000,972.031 ZM736.447,489.264 C736.854,489.803 737.262,490.343 737.670,490.882 C737.262,490.343 736.854,489.803 736.447,489.264 ZM738.893,489.264 C981.905,578.746 1224.989,668.255 1468.000,757.738 C1467.592,812.451 1467.184,867.181 1466.777,921.894 C1463.107,919.469 1459.436,917.042 1455.767,914.617 C1216.833,772.847 977.827,631.034 738.893,489.264 ZM731.553,490.882 C736.502,500.019 723.934,520.304 720.543,529.697 C710.350,561.770 700.153,593.853 689.960,625.927 C653.671,741.283 617.372,856.674 581.083,972.031 C520.738,972.031 460.375,972.031 400.030,972.031 C400.030,971.761 400.030,971.492 400.030,971.222 C510.527,811.125 621.057,650.979 731.553,490.882 ZM737.670,490.882 C917.482,651.249 1097.348,811.664 1277.160,972.031 C1203.767,971.761 1130.353,971.492 1056.960,971.222 C950.541,811.125 844.089,650.979 737.670,490.882 Z" class="cls-1"/>
</svg>
