<svg xmlns="http://www.w3.org/2000/svg" xmlns:xlink="http://www.w3.org/1999/xlink" preserveAspectRatio="xMidYMid" width="126.375" height="247.469" viewBox="0 0 126.375 247.469">
  <defs>
    <style>
      .cls-1 {
        fill: #464c52;
      }

      .cls-1, .cls-4, .cls-5 {
        fill-rule: evenodd;
      }

      .cls-2 {
        fill: #f39c12;
      }

      .cls-3, .cls-5 {
        fill: #e6ecee;
      }

      .cls-4 {
        fill: #fff;
        opacity: 0.25;
      }
    </style>
  </defs>
  <g>
    <path d="M16.313,0.000 L109.509,0.000 C118.517,0.000 126.375,7.506 126.375,16.531 L126.375,231.531 C126.375,240.556 118.517,247.455 109.509,247.455 L16.313,247.455 C7.306,247.455 0.004,240.139 0.004,231.114 L0.004,16.341 C0.004,7.316 7.306,0.000 16.313,0.000 Z" class="cls-1"/>
    <rect x="9.375" y="37.531" width="107" height="173" class="cls-2"/>
    <circle cx="62.91" cy="14.015" r="4.655" class="cls-3"/>
    <path d="M62.911,219.441 C68.058,219.441 72.231,223.622 72.231,228.779 C72.231,233.937 68.058,238.117 62.911,238.117 C57.764,238.117 53.592,233.937 53.592,228.779 C53.592,223.622 57.764,219.441 62.911,219.441 Z" class="cls-4"/>
    <path d="M48.932,25.679 L76.891,25.679 C78.177,25.679 79.220,26.725 79.220,28.014 C79.220,29.303 78.177,30.348 76.891,30.348 L48.932,30.348 C47.645,30.348 46.602,29.303 46.602,28.014 C46.602,26.725 47.645,25.679 48.932,25.679 Z" class="cls-5"/>
  </g>
</svg>
